<svg width="536" height="49" preserveAspectRatio="none" viewBox="0 0 536 49" fill="none" xmlns="http://www.w3.org/2000/svg">
<rect y="8" width="536" height="33" rx="8" fill="#FF0000"/>
<rect x="343.617" y="0.81192" width="10" height="57" transform="rotate(45 343.617 0.81192)" fill="white"/>
<rect x="373.617" y="0.81192" width="10" height="57" transform="rotate(45 373.617 0.81192)" fill="white"/>
<rect x="403.617" y="0.81192" width="10" height="57" transform="rotate(45 403.617 0.81192)" fill="white"/>
<rect x="433.617" y="0.81192" width="10" height="57" transform="rotate(45 433.617 0.81192)" fill="white"/>
<rect x="463.617" y="0.81192" width="10" height="57" transform="rotate(45 463.617 0.81192)" fill="white"/>
<rect x="493.617" y="0.81192" width="10" height="57" transform="rotate(45 493.617 0.81192)" fill="white"/>
<rect x="523.617" y="0.81192" width="10" height="57" transform="rotate(45 523.617 0.81192)" fill="white"/>
<rect x="43.617" y="0.81192" width="10" height="57" transform="rotate(45 43.617 0.81192)" fill="white"/>
<rect x="73.617" y="0.81192" width="10" height="57" transform="rotate(45 73.617 0.81192)" fill="white"/>
<rect x="103.617" y="0.81192" width="10" height="57" transform="rotate(45 103.617 0.81192)" fill="white"/>
<rect x="133.617" y="0.81192" width="10" height="57" transform="rotate(45 133.617 0.81192)" fill="white"/>
<rect x="163.617" y="0.81192" width="10" height="57" transform="rotate(45 163.617 0.81192)" fill="white"/>
<rect x="193.617" y="0.81192" width="10" height="57" transform="rotate(45 193.617 0.81192)" fill="white"/>
<rect x="283.617" y="0.81192" width="10" height="57" transform="rotate(45 283.617 0.81192)" fill="white"/>
<rect x="313.617" y="0.81192" width="10" height="57" transform="rotate(45 313.617 0.81192)" fill="white"/>
<rect x="223.617" y="0.81192" width="10" height="57" transform="rotate(45 223.617 0.81192)" fill="white"/>
<rect x="253.617" y="0.81192" width="10" height="57" transform="rotate(45 253.617 0.81192)" fill="white"/>
<path d="M321.5 7.5H335.5" stroke="#979797" stroke-linecap="square"/>
</svg>
